<svg width="48" height="48" viewBox="0 0 48 48" fill="none" xmlns="http://www.w3.org/2000/svg">
  <defs>
    <linearGradient id="lg-top" x1="8" y1="16" x2="40" y2="16" gradientUnits="userSpaceOnUse">
      <stop offset="0%" stop-color="#38bdf8" />
      <stop offset="100%" stop-color="#818cf8" />
    </linearGradient>
    <linearGradient id="lg-mid" x1="8" y1="24" x2="40" y2="24" gradientUnits="userSpaceOnUse">
      <stop offset="0%" stop-color="#2563eb" />
      <stop offset="100%" stop-color="#6d28d9" />
    </linearGradient>
    <linearGradient id="lg-bot" x1="8" y1="32" x2="40" y2="32" gradientUnits="userSpaceOnUse">
      <stop offset="0%" stop-color="#1e3a5f" />
      <stop offset="100%" stop-color="#2e1065" />
    </linearGradient>
  </defs>

  <!-- Bottom layer -->
  <polygon points="24,24 40,32 24,40 8,32" fill="url(#lg-bot)" opacity="0.85" />

  <!-- Middle layer -->
  <polygon points="24,16 40,24 24,32 8,24" fill="url(#lg-mid)" opacity="0.9" />

  <!-- Top layer -->
  <polygon points="24,8 40,16 24,24 8,16" fill="url(#lg-top)" />

  <!-- Left faces -->
  <polygon points="8,16 24,24 24,32 8,24" fill="#1d4ed8" opacity="0.6" />
  <polygon points="8,24 24,32 24,40 8,32" fill="#1e3a6e" opacity="0.5" />

  <!-- Right faces -->
  <polygon points="40,16 24,24 24,32 40,24" fill="#4f46e5" opacity="0.6" />
  <polygon points="40,24 24,32 24,40 40,32" fill="#312e81" opacity="0.5" />

  <!-- Arc curve -->
  <path d="M 11 17 Q 24 4 37 17" stroke="white" stroke-width="1.5" stroke-linecap="round" fill="none" opacity="0.9" />

  <!-- Scatter dots -->
  <circle cx="18" cy="14" r="1.5" fill="white" opacity="0.95" />
  <circle cx="24" cy="11" r="1.5" fill="white" opacity="0.95" />
  <circle cx="30" cy="14" r="1.5" fill="white" opacity="0.95" />
</svg>
